<svg viewBox="0 0 900 1120" xmlns="http://www.w3.org/2000/svg" preserveAspectRatio="xMidYMid slice" role="img"><defs><pattern id="rd419" width="9" height="9" patternUnits="userSpaceOnUse"><circle cx="3" cy="3" r="2.1" fill="#2C4A7C"/></pattern></defs><rect width="900" height="1120" fill="#F4F1E6"/><g transform="translate(450,560) rotate(2.2) scale(1.06) translate(-497,-594)"><circle cx="378" cy="403" r="279" fill="#C8302B" opacity=".85" style="mix-blend-mode:multiply"/><circle cx="504" cy="336" r="225" fill="#2C4A7C" opacity=".7" style="mix-blend-mode:multiply"/><rect x="72" y="672" width="630" height="101" fill="#E4B429" opacity=".8" transform="rotate(-3 360 717)" style="mix-blend-mode:multiply"/><rect x="180" y="806" width="558" height="224" fill="url(#rd419)" opacity=".55" transform="rotate(2 450 896)"/><path d="M558,67 L882,246 L594,336 Z" fill="#E4B429" opacity=".75" style="mix-blend-mode:multiply"/><path d="M18,1053 L306,874 L270,1109 Z" fill="#C8302B" opacity=".7" style="mix-blend-mode:multiply"/></g><circle cx="645" cy="92" r="3" fill="#C8302B" opacity=".55" style="mix-blend-mode:multiply"/><rect x="705" y="1027" width="22" height="5" fill="#2C4A7C" opacity=".6" transform="rotate(-21 705 1027)" style="mix-blend-mode:multiply"/><circle cx="32" cy="1117" r="3" fill="#E4B429" opacity=".55" style="mix-blend-mode:multiply"/><rect x="58" y="327" width="29" height="9" fill="#C8302B" opacity=".6" transform="rotate(-14 58 327)" style="mix-blend-mode:multiply"/><circle cx="622" cy="991" r="9" fill="#2C4A7C" opacity=".55" style="mix-blend-mode:multiply"/><rect x="170" y="229" width="15" height="5" fill="#E4B429" opacity=".6" transform="rotate(12 170 229)" style="mix-blend-mode:multiply"/><circle cx="521" cy="58" r="3" fill="#C8302B" opacity=".55" style="mix-blend-mode:multiply"/><rect x="264" y="944" width="31" height="7" fill="#2C4A7C" opacity=".6" transform="rotate(33 264 944)" style="mix-blend-mode:multiply"/><circle cx="524" cy="857" r="10" fill="#E4B429" opacity=".55" style="mix-blend-mode:multiply"/><rect x="25" y="527" width="32" height="10" fill="#C8302B" opacity=".6" transform="rotate(-35 25 527)" style="mix-blend-mode:multiply"/><circle cx="386" cy="691" r="11" fill="#2C4A7C" opacity=".55" style="mix-blend-mode:multiply"/><rect x="424" y="162" width="24" height="9" fill="#E4B429" opacity=".6" transform="rotate(-29 424 162)" style="mix-blend-mode:multiply"/><circle cx="16" cy="385" r="4" fill="#C8302B" opacity=".55" style="mix-blend-mode:multiply"/><rect x="693" y="626" width="24" height="10" fill="#2C4A7C" opacity=".6" transform="rotate(-19 693 626)" style="mix-blend-mode:multiply"/><circle cx="456" cy="28" r="8" fill="#E4B429" opacity=".55" style="mix-blend-mode:multiply"/><rect x="781" y="711" width="32" height="9" fill="#C8302B" opacity=".6" transform="rotate(45 781 711)" style="mix-blend-mode:multiply"/><circle cx="667" cy="397" r="5" fill="#2C4A7C" opacity=".55" style="mix-blend-mode:multiply"/><rect x="114" y="153" width="34" height="6" fill="#E4B429" opacity=".6" transform="rotate(-15 114 153)" style="mix-blend-mode:multiply"/><circle cx="175" cy="938" r="10" fill="#C8302B" opacity=".55" style="mix-blend-mode:multiply"/><rect x="898" y="154" width="29" height="13" fill="#2C4A7C" opacity=".6" transform="rotate(1 898 154)" style="mix-blend-mode:multiply"/><circle cx="897" cy="1070" r="5" fill="#E4B429" opacity=".55" style="mix-blend-mode:multiply"/><rect x="687" y="40" width="11" height="6" fill="#C8302B" opacity=".6" transform="rotate(-4 687 40)" style="mix-blend-mode:multiply"/><path d="M0,0 L900,5" stroke="#C8302B" stroke-width="0.6" opacity=".18"/><path d="M0,70 L900,70" stroke="#2C4A7C" stroke-width="1.4" opacity=".18"/><path d="M0,140 L900,144" stroke="#E4B429" stroke-width="0.6" opacity=".18"/><path d="M0,210 L900,206" stroke="#C8302B" stroke-width="2.0" opacity=".18"/><path d="M0,280 L900,287" stroke="#2C4A7C" stroke-width="0.7" opacity=".18"/><path d="M0,350 L900,358" stroke="#E4B429" stroke-width="1.7" opacity=".18"/><path d="M0,420 L900,426" stroke="#C8302B" stroke-width="1.0" opacity=".18"/><path d="M0,490 L900,481" stroke="#2C4A7C" stroke-width="1.1" opacity=".18"/><path d="M0,560 L900,552" stroke="#E4B429" stroke-width="1.6" opacity=".18"/><path d="M0,630 L900,631" stroke="#C8302B" stroke-width="1.9" opacity=".18"/><path d="M0,700 L900,694" stroke="#2C4A7C" stroke-width="0.8" opacity=".18"/><path d="M0,770 L900,773" stroke="#E4B429" stroke-width="1.4" opacity=".18"/><path d="M0,840 L900,833" stroke="#C8302B" stroke-width="1.4" opacity=".18"/><path d="M0,910 L900,901" stroke="#2C4A7C" stroke-width="1.1" opacity=".18"/><path d="M0,980 L900,988" stroke="#E4B429" stroke-width="1.9" opacity=".18"/><path d="M0,1050 L900,1048" stroke="#C8302B" stroke-width="1.6" opacity=".18"/></svg>