<svg viewBox="0 0 900 1200" xmlns="http://www.w3.org/2000/svg" preserveAspectRatio="xMidYMid slice" role="img" ><defs><pattern id="ht225" width="10" height="10" patternUnits="userSpaceOnUse"><circle cx="3" cy="3" r="2.4" fill="#0F0F0F" opacity=".5"/></pattern><pattern id="hs225" width="7" height="7" patternUnits="userSpaceOnUse"><circle cx="2.5" cy="2.5" r="1.5" fill="#0F0F0F" opacity=".45"/></pattern><linearGradient id="sky225" x1="0" y1="0" x2="0" y2="1"><stop offset="0%" stop-color="#FFD23F"/><stop offset="100%" stop-color="#E63946"/></linearGradient></defs><rect width="900" height="1200" fill="#E63946"/><rect x="108" y="120" width="684" height="624" fill="url(#sky225)"/><path d="M587,269 l-31,81" stroke="#FFF8E7" stroke-width="2.5" opacity="0.85" stroke-linecap="round"/><path d="M588,238 l-31,81" stroke="#FFF8E7" stroke-width="2.8" opacity="0.77" stroke-linecap="round"/><path d="M205,125 l-31,81" stroke="#FFF8E7" stroke-width="1.5" opacity="0.36" stroke-linecap="round"/><path d="M582,437 l-31,81" stroke="#FFF8E7" stroke-width="2.9" opacity="0.47" stroke-linecap="round"/><path d="M307,181 l-31,81" stroke="#FFF8E7" stroke-width="3.0" opacity="0.60" stroke-linecap="round"/><path d="M202,154 l-31,81" stroke="#FFF8E7" stroke-width="2.6" opacity="0.72" stroke-linecap="round"/><path d="M197,508 l-31,81" stroke="#FFF8E7" stroke-width="2.3" opacity="0.52" stroke-linecap="round"/><path d="M665,537 l-31,81" stroke="#FFF8E7" stroke-width="3.0" opacity="0.63" stroke-linecap="round"/><path d="M703,302 l-31,81" stroke="#FFF8E7" stroke-width="1.3" opacity="0.45" stroke-linecap="round"/><path d="M774,332 l-31,81" stroke="#FFF8E7" stroke-width="1.5" opacity="0.73" stroke-linecap="round"/><path d="M515,300 l-31,81" stroke="#FFF8E7" stroke-width="2.7" opacity="0.82" stroke-linecap="round"/><path d="M622,581 l-31,81" stroke="#FFF8E7" stroke-width="2.4" opacity="0.56" stroke-linecap="round"/><path d="M162,649 l-31,81" stroke="#FFF8E7" stroke-width="1.6" opacity="0.47" stroke-linecap="round"/><path d="M508,744 l-31,81" stroke="#FFF8E7" stroke-width="1.4" opacity="0.76" stroke-linecap="round"/><path d="M749,202 l-31,81" stroke="#FFF8E7" stroke-width="2.3" opacity="0.42" stroke-linecap="round"/><path d="M129,684 l-31,81" stroke="#FFF8E7" stroke-width="2.6" opacity="0.90" stroke-linecap="round"/><path d="M680,231 l-31,81" stroke="#FFF8E7" stroke-width="2.2" opacity="0.53" stroke-linecap="round"/><path d="M136,621 l-31,81" stroke="#FFF8E7" stroke-width="2.4" opacity="0.40" stroke-linecap="round"/><path d="M659,365 l-31,81" stroke="#FFF8E7" stroke-width="1.6" opacity="0.62" stroke-linecap="round"/><path d="M448,547 l-31,81" stroke="#FFF8E7" stroke-width="1.8" opacity="0.41" stroke-linecap="round"/><path d="M395,715 l-31,81" stroke="#FFF8E7" stroke-width="1.4" opacity="0.87" stroke-linecap="round"/><path d="M259,475 l-31,81" stroke="#FFF8E7" stroke-width="1.8" opacity="0.50" stroke-linecap="round"/><path d="M631,135 l-31,81" stroke="#FFF8E7" stroke-width="1.6" opacity="0.44" stroke-linecap="round"/><path d="M690,413 l-31,81" stroke="#FFF8E7" stroke-width="2.9" opacity="0.61" stroke-linecap="round"/><path d="M590,167 l-31,81" stroke="#FFF8E7" stroke-width="1.5" opacity="0.63" stroke-linecap="round"/><path d="M254,322 l-31,81" stroke="#FFF8E7" stroke-width="1.3" opacity="0.62" stroke-linecap="round"/><path d="M397,177 l-31,81" stroke="#FFF8E7" stroke-width="2.2" opacity="0.80" stroke-linecap="round"/><path d="M270,156 l-31,81" stroke="#FFF8E7" stroke-width="2.6" opacity="0.42" stroke-linecap="round"/><path d="M538,530 l-31,81" stroke="#FFF8E7" stroke-width="2.3" opacity="0.53" stroke-linecap="round"/><path d="M673,583 l-31,81" stroke="#FFF8E7" stroke-width="1.4" opacity="0.40" stroke-linecap="round"/><path d="M191,443 l-31,81" stroke="#FFF8E7" stroke-width="1.7" opacity="0.81" stroke-linecap="round"/><path d="M543,185 l-31,81" stroke="#FFF8E7" stroke-width="2.5" opacity="0.74" stroke-linecap="round"/><path d="M133,372 l-31,81" stroke="#FFF8E7" stroke-width="2.9" opacity="0.58" stroke-linecap="round"/><path d="M339,367 l-31,81" stroke="#FFF8E7" stroke-width="1.4" opacity="0.74" stroke-linecap="round"/><path d="M334,558 l-31,81" stroke="#FFF8E7" stroke-width="2.3" opacity="0.70" stroke-linecap="round"/><path d="M512,266 l-31,81" stroke="#FFF8E7" stroke-width="2.0" opacity="0.73" stroke-linecap="round"/><path d="M378,425 l-31,81" stroke="#FFF8E7" stroke-width="2.5" opacity="0.61" stroke-linecap="round"/><path d="M782,258 l-31,81" stroke="#FFF8E7" stroke-width="2.3" opacity="0.39" stroke-linecap="round"/><path d="M514,696 l-31,81" stroke="#FFF8E7" stroke-width="1.4" opacity="0.50" stroke-linecap="round"/><path d="M780,554 l-31,81" stroke="#FFF8E7" stroke-width="1.7" opacity="0.81" stroke-linecap="round"/><path d="M649,255 l-31,81" stroke="#FFF8E7" stroke-width="2.6" opacity="0.44" stroke-linecap="round"/><path d="M304,426 l-31,81" stroke="#FFF8E7" stroke-width="1.5" opacity="0.84" stroke-linecap="round"/><path d="M756,296 l-31,81" stroke="#FFF8E7" stroke-width="1.5" opacity="0.43" stroke-linecap="round"/><path d="M635,567 l-31,81" stroke="#FFF8E7" stroke-width="1.9" opacity="0.69" stroke-linecap="round"/><path d="M412,442 l-31,81" stroke="#FFF8E7" stroke-width="2.7" opacity="0.44" stroke-linecap="round"/><path d="M298,739 l-31,81" stroke="#FFF8E7" stroke-width="1.2" opacity="0.79" stroke-linecap="round"/><path d="M175,673 l-31,81" stroke="#FFF8E7" stroke-width="2.0" opacity="0.80" stroke-linecap="round"/><path d="M436,481 l-31,81" stroke="#FFF8E7" stroke-width="2.1" opacity="0.37" stroke-linecap="round"/><path d="M248,554 l-31,81" stroke="#FFF8E7" stroke-width="1.7" opacity="0.61" stroke-linecap="round"/><path d="M427,319 l-31,81" stroke="#FFF8E7" stroke-width="2.9" opacity="0.72" stroke-linecap="round"/><path d="M647,716 l-31,81" stroke="#FFF8E7" stroke-width="1.4" opacity="0.67" stroke-linecap="round"/><path d="M148,302 l-31,81" stroke="#FFF8E7" stroke-width="2.0" opacity="0.52" stroke-linecap="round"/><path d="M485,577 l-31,81" stroke="#FFF8E7" stroke-width="2.2" opacity="0.85" stroke-linecap="round"/><path d="M487,308 l-31,81" stroke="#FFF8E7" stroke-width="2.3" opacity="0.57" stroke-linecap="round"/><path d="M487,647 l-31,81" stroke="#FFF8E7" stroke-width="2.5" opacity="0.62" stroke-linecap="round"/><path d="M243,401 l-31,81" stroke="#FFF8E7" stroke-width="2.9" opacity="0.88" stroke-linecap="round"/><path d="M480,202 l-31,81" stroke="#FFF8E7" stroke-width="1.8" opacity="0.64" stroke-linecap="round"/><path d="M365,405 l-31,81" stroke="#FFF8E7" stroke-width="3.0" opacity="0.69" stroke-linecap="round"/><path d="M138,662 l-31,81" stroke="#FFF8E7" stroke-width="1.9" opacity="0.84" stroke-linecap="round"/><path d="M236,509 l-31,81" stroke="#FFF8E7" stroke-width="2.8" opacity="0.77" stroke-linecap="round"/><path d="M677,585 l-31,81" stroke="#FFF8E7" stroke-width="1.4" opacity="0.41" stroke-linecap="round"/><path d="M128,524 l-31,81" stroke="#FFF8E7" stroke-width="1.3" opacity="0.48" stroke-linecap="round"/><path d="M148,470 l-31,81" stroke="#FFF8E7" stroke-width="2.3" opacity="0.55" stroke-linecap="round"/><path d="M784,440 l-31,81" stroke="#FFF8E7" stroke-width="1.9" opacity="0.89" stroke-linecap="round"/><rect x="108" y="120" width="684" height="624" fill="none" stroke="#0F0F0F" stroke-width="10"/><path d="M450,120 v624 M108,432 h684" stroke="#0F0F0F" stroke-width="8"/><rect y="840" width="900" height="360" fill="#FFD23F"/><path d="M0,840 L900,840" stroke="#0F0F0F" stroke-width="8"/><rect y="744" width="900" height="120" fill="url(#hs225)" opacity=".4"/><g transform="translate(306,840) scale(3.57)" fill="#0F0F0F"><circle cx="0" cy="-46" r="13"/><path d="M-16,-28 C-16,-33 -6,-31 0,-31 C7,-31 15,-33 15,-28 L14,2 L34,4 L34,14 L4,14 L2,40 L-6,40 L-8,14 L-18,12 Z"/></g><rect x="6" y="6" width="888" height="1188" fill="none" stroke="#0F0F0F" stroke-width="12"/></svg>