<svg viewBox="0 0 900 1200" xmlns="http://www.w3.org/2000/svg" preserveAspectRatio="xMidYMid slice" role="img"><defs></defs><rect width="900" height="1200" fill="#F2EEE2"/><circle cx="450" cy="504" r="306" fill="#C8302B"/><path d="M0,744 L900,528 L900,1200 L0,1200 Z" fill="#14110D"/><g transform="translate(450,744) scale(4.74)" fill="#14110D"><circle cx="0" cy="-46" r="13"/><path d="M-14,-30 C-14,-34 -6,-32 0,-32 C6,-32 14,-34 14,-30 L18,4 L10,4 L8,-14 L6,40 L-2,40 L-4,2 L-8,40 L-16,40 L-14,-14 L-16,4 L-24,4 Z"/></g><rect x="90" y="888" width="648" height="50" rx="7" fill="#14110D" opacity="0.92"/><rect x="90" y="962" width="450" height="50" rx="7" fill="#14110D" opacity="0.74"/><rect x="90" y="1037" width="306" height="50" rx="7" fill="#14110D" opacity="0.56"/><rect x="90" y="72" width="234" height="19" rx="10" fill="#14110D" opacity=".7"/><rect x="6" y="6" width="888" height="1188" fill="none" stroke="#14110D" stroke-width="8" opacity=".9"/></svg>