<svg viewBox="0 0 1000 1250" xmlns="http://www.w3.org/2000/svg" preserveAspectRatio="xMidYMid slice" role="img" ><defs><filter id="g31" x="-10%" y="-10%" width="120%" height="120%"><feTurbulence type="fractalNoise" baseFrequency="0.8" numOctaves="3" seed="31" result="n"/><feColorMatrix in="n" type="saturate" values="0"/><feComponentTransfer><feFuncA type="linear" slope="0.42"/></feComponentTransfer></filter><radialGradient id="rg31_0" cx="40%" cy="35%"><stop offset="0%" stop-color="#A63D2A" stop-opacity=".95"/><stop offset="70%" stop-color="#A63D2A" stop-opacity=".55"/><stop offset="100%" stop-color="#3E5C54" stop-opacity="0"/></radialGradient><radialGradient id="rg31_1" cx="40%" cy="35%"><stop offset="0%" stop-color="#3E5C54" stop-opacity=".95"/><stop offset="70%" stop-color="#3E5C54" stop-opacity=".55"/><stop offset="100%" stop-color="#C9A227" stop-opacity="0"/></radialGradient><radialGradient id="rg31_2" cx="40%" cy="35%"><stop offset="0%" stop-color="#C9A227" stop-opacity=".95"/><stop offset="70%" stop-color="#C9A227" stop-opacity=".55"/><stop offset="100%" stop-color="#16130F" stop-opacity="0"/></radialGradient><radialGradient id="rg31_3" cx="40%" cy="35%"><stop offset="0%" stop-color="#16130F" stop-opacity=".95"/><stop offset="70%" stop-color="#16130F" stop-opacity=".55"/><stop offset="100%" stop-color="#F2EDE4" stop-opacity="0"/></radialGradient></defs><rect width="1000" height="1250" fill="#F2EDE4"/><path d="M456.8,186.5 C457.1,239.9 438.8,272.6 398.7,320.5 C358.6,368.5 320.0,420.0 256.1,426.4 C192.3,432.8 141.3,400.5 79.5,352.5 C17.7,304.6 -46.8,258.6 -52.8,186.5 C-58.8,114.5 -12.3,34.0 49.5,-7.7 C111.3,-49.4 186.6,-34.3 256.1,-22.0 C325.7,-9.7 357.2,12.1 397.4,53.8 C437.5,95.5 456.5,133.2 456.8,186.5 Z" fill="url(#rg31_0)" style="mix-blend-mode:screen"/><path d="M1093.6,877.0 C1099.6,999.1 1076.1,1146.2 986.8,1196.4 C897.5,1246.5 775.0,1135.3 647.1,1127.8 C519.2,1120.3 438.1,1208.9 347.4,1158.7 C256.7,1108.6 190.9,987.2 193.5,877.0 C196.1,766.8 269.9,665.7 360.6,607.7 C451.3,549.7 527.9,591.1 647.1,586.8 C766.3,582.5 867.2,528.1 956.5,586.2 C1045.8,644.2 1087.5,755.0 1093.6,877.0 Z" fill="url(#rg31_1)" style="mix-blend-mode:multiply"/><path d="M597.6,396.2 C594.1,443.7 529.7,465.2 483.4,506.7 C437.1,548.2 413.3,603.4 365.9,603.8 C318.5,604.2 275.7,550.2 246.2,508.7 C216.7,467.2 220.4,443.1 218.3,396.2 C216.3,349.3 206.6,308.7 236.1,274.2 C265.6,239.7 312.9,224.8 365.9,223.9 C418.9,222.9 454.6,234.9 500.9,269.3 C547.2,303.8 601.1,348.7 597.6,396.2 Z" fill="url(#rg31_2)" style="mix-blend-mode:multiply"/><path d="M1104.1,1073.3 C1125.3,1174.3 1096.2,1284.6 1013.9,1375.4 C931.6,1466.2 825.6,1523.0 692.5,1527.3 C559.5,1531.5 446.7,1487.4 348.6,1396.6 C250.6,1305.8 196.3,1197.0 202.3,1073.3 C208.3,949.6 280.5,841.0 378.6,778.2 C476.6,715.3 586.6,740.6 692.5,759.1 C798.4,777.6 825.7,807.9 908.0,870.7 C990.3,933.6 1082.9,972.4 1104.1,1073.3 Z" fill="url(#rg31_3)" style="mix-blend-mode:screen"/><path d="M782.1,295.5 C779.0,365.7 749.4,412.4 696.6,463.5 C643.7,514.6 579.9,559.9 517.8,551.0 C455.8,542.1 426.4,470.3 386.3,419.2 C346.2,368.1 334.4,361.2 317.2,295.5 C299.9,229.8 259.8,139.8 299.9,90.7 C340.1,41.6 435.4,45.8 517.8,50.2 C600.3,54.6 659.3,63.8 712.2,112.8 C765.0,161.9 785.2,225.4 782.1,295.5 Z" fill="url(#rg31_0)" style="mix-blend-mode:multiply"/><path d="M1158.9,859.9 C1147.1,957.3 1179.1,994.8 1126.7,1075.8 C1074.4,1156.8 996.3,1257.9 897.1,1264.8 C797.9,1271.7 720.3,1191.3 630.7,1110.3 C541.2,1029.3 436.1,947.6 449.4,859.9 C462.7,772.2 607.5,735.2 697.1,671.9 C786.6,608.7 799.4,560.4 897.1,543.8 C994.8,527.1 1133.2,525.5 1185.6,588.7 C1238.0,651.9 1170.7,762.5 1158.9,859.9 Z" fill="url(#rg31_1)" style="mix-blend-mode:multiply"/><path d="M924.6,281.0 C935.3,337.0 936.5,404.8 895.6,446.1 C854.6,487.4 778.1,498.7 719.9,487.4 C661.7,476.0 636.6,430.7 604.5,389.5 C572.3,348.2 574.6,339.0 559.1,281.0 C543.6,222.9 494.6,130.1 526.8,99.4 C558.9,68.7 656.8,114.0 719.9,127.4 C783.0,140.7 801.2,135.3 842.2,166.0 C883.1,196.8 913.9,224.9 924.6,281.0 Z" fill="url(#rg31_2)" style="mix-blend-mode:screen"/><path d="M911.6,961.8 C929.2,1127.5 958.3,1278.8 848.8,1417.3 C739.3,1555.8 545.8,1665.6 364.2,1654.1 C182.7,1642.6 62.3,1498.2 -59.0,1359.7 C-180.4,1221.2 -226.4,1136.1 -242.5,961.8 C-258.6,787.5 -261.0,587.2 -139.6,488.2 C-18.3,389.2 184.1,446.7 364.2,466.9 C544.3,487.1 651.4,490.0 760.9,589.0 C870.4,688.0 894.0,796.2 911.6,961.8 Z" fill="url(#rg31_3)" style="mix-blend-mode:multiply"/><path d="M-40,766 C300,830 700,763 1040,802" stroke="#A63D2A" stroke-width="5.9" fill="none" opacity="0.22" stroke-linecap="round"/><path d="M-40,1036 C300,992 700,1084 1040,1095" stroke="#A63D2A" stroke-width="3.8" fill="none" opacity="0.10" stroke-linecap="round"/><path d="M-40,469 C300,459 700,558 1040,425" stroke="#C9A227" stroke-width="5.5" fill="none" opacity="0.25" stroke-linecap="round"/><path d="M-40,1154 C300,1206 700,1235 1040,1198" stroke="#3E5C54" stroke-width="6.5" fill="none" opacity="0.23" stroke-linecap="round"/><path d="M-40,698 C300,649 700,643 1040,712" stroke="#16130F" stroke-width="3.5" fill="none" opacity="0.30" stroke-linecap="round"/><path d="M-40,407 C300,340 700,458 1040,437" stroke="#C9A227" stroke-width="8.5" fill="none" opacity="0.27" stroke-linecap="round"/><path d="M-40,725 C300,642 700,755 1040,753" stroke="#3E5C54" stroke-width="2.7" fill="none" opacity="0.16" stroke-linecap="round"/><path d="M-40,1103 C300,1090 700,1141 1040,1108" stroke="#3E5C54" stroke-width="2.9" fill="none" opacity="0.29" stroke-linecap="round"/><path d="M-40,919 C300,835 700,940 1040,966" stroke="#A63D2A" stroke-width="3.1" fill="none" opacity="0.15" stroke-linecap="round"/><rect width="1000" height="1250" filter="url(#g31)" opacity=".33" style="mix-blend-mode:overlay"/></svg>