<svg viewBox="0 0 900 1200" xmlns="http://www.w3.org/2000/svg" preserveAspectRatio="xMidYMid slice" role="img"><defs><clipPath id="pc1011_0"><rect x="40" y="40" width="819" height="294"/></clipPath><clipPath id="pc1011_1"><rect x="40" y="365" width="242" height="450"/></clipPath><clipPath id="pc1011_2"><rect x="319" y="365" width="242" height="450"/></clipPath><clipPath id="pc1011_3"><rect x="597" y="365" width="262" height="450"/></clipPath><clipPath id="pc1011_4"><rect x="40" y="846" width="819" height="313"/></clipPath></defs><rect width="900" height="1200" fill="#F6F3EC"/><g clip-path="url(#pc1011_0)"><rect x="40.5" y="40.5" width="819.0" height="293.52000000000004" fill="#E8C547"/><path d="M450.0,157.90800000000002 L1760,158 L1744,363 Z" fill="#F6F3EC" opacity=".26"/><path d="M450.0,157.90800000000002 L1696,563 L1618,753 Z" fill="#F6F3EC" opacity=".26"/><path d="M450.0,157.90800000000002 L1510,928 L1377,1085 Z" fill="#F6F3EC" opacity=".26"/><path d="M450.0,157.90800000000002 L1220,1218 L1045,1325 Z" fill="#F6F3EC" opacity=".26"/><path d="M450.0,157.90800000000002 L855,1404 L655,1452 Z" fill="#F6F3EC" opacity=".26"/><path d="M450.0,157.90800000000002 L450,1468 L245,1452 Z" fill="#F6F3EC" opacity=".26"/><path d="M450.0,157.90800000000002 L45,1404 L-145,1325 Z" fill="#F6F3EC" opacity=".26"/><path d="M450.0,157.90800000000002 L-320,1218 L-477,1085 Z" fill="#F6F3EC" opacity=".26"/><path d="M450.0,157.90800000000002 L-610,928 L-718,753 Z" fill="#F6F3EC" opacity=".26"/><path d="M450.0,157.90800000000002 L-796,563 L-844,363 Z" fill="#F6F3EC" opacity=".26"/><path d="M450.0,157.90800000000002 L-860,158 L-844,-47 Z" fill="#F6F3EC" opacity=".26"/><path d="M450.0,157.90800000000002 L-796,-247 L-718,-437 Z" fill="#F6F3EC" opacity=".26"/><path d="M450.0,157.90800000000002 L-610,-612 L-477,-769 Z" fill="#F6F3EC" opacity=".26"/><path d="M450.0,157.90800000000002 L-320,-902 L-145,-1010 Z" fill="#F6F3EC" opacity=".26"/><path d="M450.0,157.90800000000002 L45,-1088 L245,-1136 Z" fill="#F6F3EC" opacity=".26"/><path d="M450.0,157.90800000000002 L450,-1152 L655,-1136 Z" fill="#F6F3EC" opacity=".26"/><path d="M450.0,157.90800000000002 L855,-1088 L1045,-1010 Z" fill="#F6F3EC" opacity=".26"/><path d="M450.0,157.90800000000002 L1220,-902 L1377,-769 Z" fill="#F6F3EC" opacity=".26"/><path d="M450.0,157.90800000000002 L1510,-612 L1618,-437 Z" fill="#F6F3EC" opacity=".26"/><path d="M450.0,157.90800000000002 L1696,-247 L1744,-47 Z" fill="#F6F3EC" opacity=".26"/><path d="M40.5,334.02000000000004 L40,285 L128,285 L128,253 L200,253 L200,253 L321,253 L321,273 L420,273 L420,264 L515,264 L515,258 L638,258 L638,278 L746,278 L746,254 L821,254 L821,251 L924,251 L859.5,334.02000000000004 Z" fill="#12110F"/><g transform="translate(450,287) scale(0.98)" fill="#12110F"><circle cx="0" cy="-46" r="13"/><path d="M-14,-30 C-14,-34 -6,-32 0,-32 C6,-32 14,-34 14,-30 L18,4 L10,4 L8,-14 L6,40 L-2,40 L-4,2 L-8,40 L-16,40 L-14,-14 L-16,4 L-24,4 Z"/></g></g><rect x="40" y="40" width="819" height="294" fill="none" stroke="#12110F" stroke-width="7.2"/><rect x="81" y="58" width="393" height="38" fill="#F6F3EC" stroke="#12110F" stroke-width="3.6"/><rect x="106" y="65" width="314" height="5" fill="#12110F" opacity=".55" rx="3"/><rect x="106" y="78" width="216" height="5" fill="#12110F" opacity=".55" rx="3"/><g clip-path="url(#pc1011_1)"><rect x="40.5" y="365.01" width="242.27999999999997" height="450.17999999999995" fill="#D63B23"/><rect x="74" y="410" width="174" height="261" fill="#E8C547"/><path d="M78,629 l-13,37" stroke="#F6F3EC" stroke-width="2.3" opacity="0.67"/><path d="M194,548 l-13,37" stroke="#F6F3EC" stroke-width="1.3" opacity="0.76"/><path d="M91,654 l-13,37" stroke="#F6F3EC" stroke-width="1.4" opacity="0.83"/><path d="M242,444 l-13,37" stroke="#F6F3EC" stroke-width="2.1" opacity="0.45"/><path d="M146,476 l-13,37" stroke="#F6F3EC" stroke-width="1.3" opacity="0.66"/><path d="M223,533 l-13,37" stroke="#F6F3EC" stroke-width="1.1" opacity="0.48"/><path d="M98,448 l-13,37" stroke="#F6F3EC" stroke-width="1.2" opacity="0.49"/><path d="M167,478 l-13,37" stroke="#F6F3EC" stroke-width="1.3" opacity="0.85"/><path d="M81,528 l-13,37" stroke="#F6F3EC" stroke-width="1.1" opacity="0.50"/><path d="M128,446 l-13,37" stroke="#F6F3EC" stroke-width="1.8" opacity="0.62"/><path d="M127,499 l-13,37" stroke="#F6F3EC" stroke-width="1.5" opacity="0.62"/><path d="M208,437 l-13,37" stroke="#F6F3EC" stroke-width="2.6" opacity="0.79"/><path d="M184,431 l-13,37" stroke="#F6F3EC" stroke-width="1.2" opacity="0.50"/><path d="M81,669 l-13,37" stroke="#F6F3EC" stroke-width="1.9" opacity="0.61"/><path d="M166,617 l-13,37" stroke="#F6F3EC" stroke-width="1.4" opacity="0.56"/><path d="M130,526 l-13,37" stroke="#F6F3EC" stroke-width="1.2" opacity="0.62"/><path d="M220,609 l-13,37" stroke="#F6F3EC" stroke-width="1.8" opacity="0.48"/><path d="M101,642 l-13,37" stroke="#F6F3EC" stroke-width="1.5" opacity="0.88"/><path d="M117,504 l-13,37" stroke="#F6F3EC" stroke-width="2.5" opacity="0.54"/><path d="M94,572 l-13,37" stroke="#F6F3EC" stroke-width="1.6" opacity="0.69"/><path d="M130,423 l-13,37" stroke="#F6F3EC" stroke-width="2.3" opacity="0.75"/><path d="M126,578 l-13,37" stroke="#F6F3EC" stroke-width="1.0" opacity="0.70"/><path d="M164,518 l-13,37" stroke="#F6F3EC" stroke-width="2.5" opacity="0.89"/><path d="M199,458 l-13,37" stroke="#F6F3EC" stroke-width="1.4" opacity="0.77"/><path d="M139,565 l-13,37" stroke="#F6F3EC" stroke-width="1.5" opacity="0.81"/><path d="M118,443 l-13,37" stroke="#F6F3EC" stroke-width="2.0" opacity="0.81"/><path d="M203,430 l-13,37" stroke="#F6F3EC" stroke-width="2.2" opacity="0.84"/><path d="M209,540 l-13,37" stroke="#F6F3EC" stroke-width="1.9" opacity="0.82"/><path d="M184,565 l-13,37" stroke="#F6F3EC" stroke-width="1.6" opacity="0.43"/><path d="M123,627 l-13,37" stroke="#F6F3EC" stroke-width="2.1" opacity="0.84"/><path d="M135,523 l-13,37" stroke="#F6F3EC" stroke-width="2.4" opacity="0.59"/><path d="M163,602 l-13,37" stroke="#F6F3EC" stroke-width="2.4" opacity="0.40"/><path d="M96,506 l-13,37" stroke="#F6F3EC" stroke-width="1.4" opacity="0.42"/><path d="M209,538 l-13,37" stroke="#F6F3EC" stroke-width="2.5" opacity="0.88"/><rect x="74" y="410" width="174" height="261" fill="none" stroke="#12110F" stroke-width="6"/><path d="M162,410 v261 M74,541 h174" stroke="#12110F" stroke-width="5"/><g transform="translate(123,793) scale(1.21)" fill="#12110F"><circle cx="0" cy="-46" r="13"/><path d="M-16,-28 C-16,-33 -6,-31 0,-31 C7,-31 15,-33 15,-28 L14,2 L34,4 L34,14 L4,14 L2,40 L-6,40 L-8,14 L-18,12 Z"/></g></g><rect x="40" y="365" width="242" height="450" fill="none" stroke="#12110F" stroke-width="7.2"/><ellipse cx="213" cy="455" rx="51" ry="45" fill="#F6F3EC" stroke="#12110F" stroke-width="4.5"/><path d="M197,491 l-12,38 l31,-27 Z" fill="#F6F3EC" stroke="#12110F" stroke-width="4.5" stroke-linejoin="round"/><rect x="182" y="442" width="61" height="9" fill="#12110F" opacity=".6" rx="5"/><rect x="188" y="462" width="47" height="9" fill="#12110F" opacity=".6" rx="5"/><g clip-path="url(#pc1011_2)"><rect x="318.96000000000004" y="365.01" width="242.27999999999997" height="450.17999999999995" fill="#E8C547"/><path d="M440.1,545.082 L1160,545 L1152,658 Z" fill="#F6F3EC" opacity=".26"/><path d="M440.1,545.082 L1125,768 L1082,872 Z" fill="#F6F3EC" opacity=".26"/><path d="M440.1,545.082 L1023,968 L949,1054 Z" fill="#F6F3EC" opacity=".26"/><path d="M440.1,545.082 L863,1128 L767,1187 Z" fill="#F6F3EC" opacity=".26"/><path d="M440.1,545.082 L663,1230 L553,1257 Z" fill="#F6F3EC" opacity=".26"/><path d="M440.1,545.082 L440,1265 L327,1257 Z" fill="#F6F3EC" opacity=".26"/><path d="M440.1,545.082 L218,1230 L113,1187 Z" fill="#F6F3EC" opacity=".26"/><path d="M440.1,545.082 L17,1128 L-69,1054 Z" fill="#F6F3EC" opacity=".26"/><path d="M440.1,545.082 L-143,968 L-202,872 Z" fill="#F6F3EC" opacity=".26"/><path d="M440.1,545.082 L-245,768 L-271,658 Z" fill="#F6F3EC" opacity=".26"/><path d="M440.1,545.082 L-280,545 L-271,432 Z" fill="#F6F3EC" opacity=".26"/><path d="M440.1,545.082 L-245,323 L-202,218 Z" fill="#F6F3EC" opacity=".26"/><path d="M440.1,545.082 L-143,122 L-69,36 Z" fill="#F6F3EC" opacity=".26"/><path d="M440.1,545.082 L17,-38 L113,-97 Z" fill="#F6F3EC" opacity=".26"/><path d="M440.1,545.082 L218,-140 L327,-166 Z" fill="#F6F3EC" opacity=".26"/><path d="M440.1,545.082 L440,-175 L553,-166 Z" fill="#F6F3EC" opacity=".26"/><path d="M440.1,545.082 L663,-140 L767,-97 Z" fill="#F6F3EC" opacity=".26"/><path d="M440.1,545.082 L863,-38 L949,36 Z" fill="#F6F3EC" opacity=".26"/><path d="M440.1,545.082 L1023,122 L1082,218 Z" fill="#F6F3EC" opacity=".26"/><path d="M440.1,545.082 L1125,323 L1152,432 Z" fill="#F6F3EC" opacity=".26"/><path d="M318.96000000000004,815.1899999999999 L319,629 L342,629 L342,713 L362,713 L362,648 L386,648 L386,647 L414,647 L414,692 L433,692 L433,680 L471,680 L471,646 L505,646 L505,711 L524,711 L524,726 L557,726 L557,735 L592,735 L561.24,815.1899999999999 Z" fill="#12110F"/><g transform="translate(440,743) scale(0.81)" fill="#12110F"><circle cx="0" cy="-46" r="13"/><path d="M-14,-30 C-14,-34 -6,-32 0,-32 C6,-32 14,-34 14,-30 L18,4 L10,4 L8,-14 L6,40 L-2,40 L-4,2 L-8,40 L-16,40 L-14,-14 L-16,4 L-24,4 Z"/></g></g><rect x="319" y="365" width="242" height="450" fill="none" stroke="#12110F" stroke-width="7.2"/><g clip-path="url(#pc1011_3)"><rect x="597.4200000000001" y="365.01" width="262.08" height="450.17999999999995" fill="#D63B23"/><rect x="634" y="410" width="189" height="261" fill="#E8C547"/><path d="M708,564 l-13,37" stroke="#F6F3EC" stroke-width="2.4" opacity="0.59"/><path d="M690,528 l-13,37" stroke="#F6F3EC" stroke-width="1.2" opacity="0.40"/><path d="M796,666 l-13,37" stroke="#F6F3EC" stroke-width="1.5" opacity="0.51"/><path d="M635,457 l-13,37" stroke="#F6F3EC" stroke-width="1.3" opacity="0.43"/><path d="M699,510 l-13,37" stroke="#F6F3EC" stroke-width="1.9" opacity="0.48"/><path d="M667,496 l-13,37" stroke="#F6F3EC" stroke-width="1.5" opacity="0.71"/><path d="M726,546 l-13,37" stroke="#F6F3EC" stroke-width="1.5" opacity="0.62"/><path d="M652,450 l-13,37" stroke="#F6F3EC" stroke-width="2.4" opacity="0.84"/><path d="M689,631 l-13,37" stroke="#F6F3EC" stroke-width="1.6" opacity="0.41"/><path d="M774,426 l-13,37" stroke="#F6F3EC" stroke-width="1.8" opacity="0.76"/><path d="M727,472 l-13,37" stroke="#F6F3EC" stroke-width="2.0" opacity="0.75"/><path d="M808,425 l-13,37" stroke="#F6F3EC" stroke-width="1.7" opacity="0.49"/><path d="M816,597 l-13,37" stroke="#F6F3EC" stroke-width="1.7" opacity="0.73"/><path d="M712,663 l-13,37" stroke="#F6F3EC" stroke-width="1.8" opacity="0.52"/><path d="M786,543 l-13,37" stroke="#F6F3EC" stroke-width="1.8" opacity="0.72"/><path d="M797,616 l-13,37" stroke="#F6F3EC" stroke-width="1.4" opacity="0.73"/><path d="M779,580 l-13,37" stroke="#F6F3EC" stroke-width="2.4" opacity="0.49"/><path d="M788,429 l-13,37" stroke="#F6F3EC" stroke-width="2.0" opacity="0.78"/><path d="M776,638 l-13,37" stroke="#F6F3EC" stroke-width="1.3" opacity="0.73"/><path d="M764,583 l-13,37" stroke="#F6F3EC" stroke-width="2.2" opacity="0.56"/><path d="M766,474 l-13,37" stroke="#F6F3EC" stroke-width="1.5" opacity="0.56"/><path d="M745,669 l-13,37" stroke="#F6F3EC" stroke-width="2.3" opacity="0.77"/><path d="M766,510 l-13,37" stroke="#F6F3EC" stroke-width="1.4" opacity="0.50"/><path d="M806,593 l-13,37" stroke="#F6F3EC" stroke-width="1.0" opacity="0.46"/><path d="M649,475 l-13,37" stroke="#F6F3EC" stroke-width="1.2" opacity="0.43"/><path d="M694,527 l-13,37" stroke="#F6F3EC" stroke-width="1.4" opacity="0.83"/><path d="M742,431 l-13,37" stroke="#F6F3EC" stroke-width="2.4" opacity="0.41"/><path d="M774,419 l-13,37" stroke="#F6F3EC" stroke-width="1.3" opacity="0.81"/><path d="M702,547 l-13,37" stroke="#F6F3EC" stroke-width="1.0" opacity="0.45"/><path d="M740,515 l-13,37" stroke="#F6F3EC" stroke-width="1.9" opacity="0.53"/><path d="M781,412 l-13,37" stroke="#F6F3EC" stroke-width="2.0" opacity="0.68"/><path d="M788,603 l-13,37" stroke="#F6F3EC" stroke-width="1.3" opacity="0.56"/><path d="M780,608 l-13,37" stroke="#F6F3EC" stroke-width="1.1" opacity="0.40"/><path d="M814,548 l-13,37" stroke="#F6F3EC" stroke-width="1.2" opacity="0.51"/><rect x="634" y="410" width="189" height="261" fill="none" stroke="#12110F" stroke-width="6"/><path d="M728,410 v261 M634,541 h189" stroke="#12110F" stroke-width="5"/><g transform="translate(687,793) scale(1.31)" fill="#12110F"><circle cx="0" cy="-46" r="13"/><path d="M-16,-28 C-16,-33 -6,-31 0,-31 C7,-31 15,-33 15,-28 L14,2 L34,4 L34,14 L4,14 L2,40 L-6,40 L-8,14 L-18,12 Z"/></g></g><rect x="597" y="365" width="262" height="450" fill="none" stroke="#12110F" stroke-width="7.2"/><rect x="611" y="392" width="126" height="59" fill="#F6F3EC" stroke="#12110F" stroke-width="3.6"/><rect x="618" y="403" width="101" height="8" fill="#12110F" opacity=".55" rx="4"/><rect x="618" y="423" width="69" height="8" fill="#12110F" opacity=".55" rx="4"/><ellipse cx="668" cy="455" rx="55" ry="45" fill="#F6F3EC" stroke="#12110F" stroke-width="4.5"/><path d="M652,491 l-13,38 l33,-27 Z" fill="#F6F3EC" stroke="#12110F" stroke-width="4.5" stroke-linejoin="round"/><rect x="635" y="442" width="66" height="9" fill="#12110F" opacity=".6" rx="5"/><rect x="642" y="462" width="51" height="9" fill="#12110F" opacity=".6" rx="5"/><g clip-path="url(#pc1011_4)"><rect x="40.5" y="846.18" width="819.0" height="313.32000000000005" fill="#E8C547"/><path d="M450.0,971.508 L1760,972 L1744,1176 Z" fill="#F6F3EC" opacity=".26"/><path d="M450.0,971.508 L1696,1376 L1618,1566 Z" fill="#F6F3EC" opacity=".26"/><path d="M450.0,971.508 L1510,1742 L1377,1898 Z" fill="#F6F3EC" opacity=".26"/><path d="M450.0,971.508 L1220,2032 L1045,2139 Z" fill="#F6F3EC" opacity=".26"/><path d="M450.0,971.508 L855,2218 L655,2266 Z" fill="#F6F3EC" opacity=".26"/><path d="M450.0,971.508 L450,2282 L245,2266 Z" fill="#F6F3EC" opacity=".26"/><path d="M450.0,971.508 L45,2218 L-145,2139 Z" fill="#F6F3EC" opacity=".26"/><path d="M450.0,971.508 L-320,2032 L-477,1898 Z" fill="#F6F3EC" opacity=".26"/><path d="M450.0,971.508 L-610,1742 L-718,1566 Z" fill="#F6F3EC" opacity=".26"/><path d="M450.0,971.508 L-796,1376 L-844,1176 Z" fill="#F6F3EC" opacity=".26"/><path d="M450.0,971.508 L-860,972 L-844,767 Z" fill="#F6F3EC" opacity=".26"/><path d="M450.0,971.508 L-796,567 L-718,377 Z" fill="#F6F3EC" opacity=".26"/><path d="M450.0,971.508 L-610,201 L-477,45 Z" fill="#F6F3EC" opacity=".26"/><path d="M450.0,971.508 L-320,-89 L-145,-196 Z" fill="#F6F3EC" opacity=".26"/><path d="M450.0,971.508 L45,-275 L245,-323 Z" fill="#F6F3EC" opacity=".26"/><path d="M450.0,971.508 L450,-339 L655,-323 Z" fill="#F6F3EC" opacity=".26"/><path d="M450.0,971.508 L855,-275 L1045,-196 Z" fill="#F6F3EC" opacity=".26"/><path d="M450.0,971.508 L1220,-89 L1377,45 Z" fill="#F6F3EC" opacity=".26"/><path d="M450.0,971.508 L1510,201 L1618,377 Z" fill="#F6F3EC" opacity=".26"/><path d="M450.0,971.508 L1696,567 L1744,767 Z" fill="#F6F3EC" opacity=".26"/><path d="M40.5,1159.5 L40,1046 L127,1046 L127,1106 L247,1106 L247,1075 L349,1075 L349,1107 L442,1107 L442,1099 L567,1099 L567,1080 L689,1080 L689,1047 L801,1047 L801,1067 L908,1067 L859.5,1159.5 Z" fill="#12110F"/><g transform="translate(450,1109) scale(1.04)" fill="#12110F"><circle cx="0" cy="-46" r="13"/><path d="M-14,-30 C-14,-34 -6,-32 0,-32 C6,-32 14,-34 14,-30 L18,4 L10,4 L8,-14 L6,40 L-2,40 L-4,2 L-8,40 L-16,40 L-14,-14 L-16,4 L-24,4 Z"/></g></g><rect x="40" y="846" width="819" height="313" fill="none" stroke="#12110F" stroke-width="7.2"/></svg>