<svg viewBox="0 0 900 1120" xmlns="http://www.w3.org/2000/svg" preserveAspectRatio="xMidYMid slice" role="img"><defs><pattern id="rd481" width="9" height="9" patternUnits="userSpaceOnUse"><circle cx="3" cy="3" r="2.1" fill="#D63B23"/></pattern></defs><rect width="900" height="1120" fill="#F3F0E9"/><g transform="translate(450,560) rotate(3.2) scale(0.99) translate(-459,-617)"><rect x="333" y="90" width="216" height="190" fill="#D63B23" opacity="0.65" transform="rotate(-3 441 179)" style="mix-blend-mode:multiply"/><rect x="594" y="90" width="216" height="190" fill="#2B4C7E" opacity="0.80" transform="rotate(-2 702 179)" style="mix-blend-mode:multiply"/><rect x="72" y="336" width="216" height="190" fill="#D63B23" opacity="0.65" transform="rotate(-1 180 426)" style="mix-blend-mode:multiply"/><rect x="594" y="336" width="216" height="190" fill="#C9A227" opacity="0.50" transform="rotate(1 702 426)" style="mix-blend-mode:multiply"/><rect x="72" y="582" width="216" height="190" fill="#2B4C7E" opacity="0.80" transform="rotate(2 180 672)" style="mix-blend-mode:multiply"/><rect x="333" y="582" width="216" height="190" fill="#C9A227" opacity="0.50" transform="rotate(3 441 672)" style="mix-blend-mode:multiply"/><rect x="72" y="829" width="216" height="190" fill="#C9A227" opacity="0.50" transform="rotate(-4 180 918)" style="mix-blend-mode:multiply"/><rect x="333" y="829" width="216" height="190" fill="#D63B23" opacity="0.65" transform="rotate(-3 441 918)" style="mix-blend-mode:multiply"/><rect x="594" y="829" width="216" height="190" fill="#2B4C7E" opacity="0.80" transform="rotate(-2 702 918)" style="mix-blend-mode:multiply"/><path d="M-90,963 L990,246 L990,448 L-90,1165 Z" fill="#D63B23" opacity=".62" style="mix-blend-mode:multiply"/><circle cx="648" cy="851" r="153" fill="url(#rd481)" opacity=".6"/></g><circle cx="577" cy="519" r="5" fill="#C9A227" opacity=".55" style="mix-blend-mode:multiply"/><rect x="109" y="317" width="29" height="5" fill="#D63B23" opacity=".6" transform="rotate(-23 109 317)" style="mix-blend-mode:multiply"/><circle cx="280" cy="938" r="5" fill="#2B4C7E" opacity=".55" style="mix-blend-mode:multiply"/><rect x="163" y="1103" width="8" height="9" fill="#C9A227" opacity=".6" transform="rotate(-30 163 1103)" style="mix-blend-mode:multiply"/><circle cx="168" cy="92" r="5" fill="#D63B23" opacity=".55" style="mix-blend-mode:multiply"/><rect x="721" y="98" width="20" height="6" fill="#2B4C7E" opacity=".6" transform="rotate(-18 721 98)" style="mix-blend-mode:multiply"/><circle cx="144" cy="557" r="7" fill="#C9A227" opacity=".55" style="mix-blend-mode:multiply"/><rect x="602" y="419" width="19" height="7" fill="#D63B23" opacity=".6" transform="rotate(39 602 419)" style="mix-blend-mode:multiply"/><circle cx="685" cy="445" r="5" fill="#2B4C7E" opacity=".55" style="mix-blend-mode:multiply"/><rect x="293" y="516" width="18" height="9" fill="#C9A227" opacity=".6" transform="rotate(3 293 516)" style="mix-blend-mode:multiply"/><circle cx="203" cy="933" r="9" fill="#D63B23" opacity=".55" style="mix-blend-mode:multiply"/><rect x="661" y="901" width="24" height="11" fill="#2B4C7E" opacity=".6" transform="rotate(-42 661 901)" style="mix-blend-mode:multiply"/><circle cx="837" cy="433" r="6" fill="#C9A227" opacity=".55" style="mix-blend-mode:multiply"/><rect x="365" y="158" width="15" height="9" fill="#D63B23" opacity=".6" transform="rotate(19 365 158)" style="mix-blend-mode:multiply"/><circle cx="522" cy="1114" r="4" fill="#2B4C7E" opacity=".55" style="mix-blend-mode:multiply"/><rect x="570" y="162" width="17" height="7" fill="#C9A227" opacity=".6" transform="rotate(-16 570 162)" style="mix-blend-mode:multiply"/><circle cx="884" cy="705" r="10" fill="#D63B23" opacity=".55" style="mix-blend-mode:multiply"/><rect x="512" y="230" width="29" height="6" fill="#2B4C7E" opacity=".6" transform="rotate(40 512 230)" style="mix-blend-mode:multiply"/><circle cx="497" cy="163" r="10" fill="#C9A227" opacity=".55" style="mix-blend-mode:multiply"/><rect x="435" y="279" width="21" height="8" fill="#D63B23" opacity=".6" transform="rotate(-37 435 279)" style="mix-blend-mode:multiply"/><circle cx="102" cy="166" r="11" fill="#2B4C7E" opacity=".55" style="mix-blend-mode:multiply"/><rect x="505" y="738" width="15" height="6" fill="#C9A227" opacity=".6" transform="rotate(-17 505 738)" style="mix-blend-mode:multiply"/><path d="M0,0 L900,-8" stroke="#C9A227" stroke-width="1.8" opacity=".18"/><path d="M0,70 L900,64" stroke="#D63B23" stroke-width="1.8" opacity=".18"/><path d="M0,140 L900,141" stroke="#2B4C7E" stroke-width="1.7" opacity=".18"/><path d="M0,210 L900,202" stroke="#C9A227" stroke-width="1.3" opacity=".18"/><path d="M0,280 L900,275" stroke="#D63B23" stroke-width="1.2" opacity=".18"/><path d="M0,350 L900,356" stroke="#2B4C7E" stroke-width="2.0" opacity=".18"/><path d="M0,420 L900,419" stroke="#C9A227" stroke-width="1.3" opacity=".18"/><path d="M0,490 L900,481" stroke="#D63B23" stroke-width="1.7" opacity=".18"/><path d="M0,560 L900,552" stroke="#2B4C7E" stroke-width="1.6" opacity=".18"/><path d="M0,630 L900,620" stroke="#C9A227" stroke-width="1.6" opacity=".18"/><path d="M0,700 L900,702" stroke="#D63B23" stroke-width="1.5" opacity=".18"/><path d="M0,770 L900,764" stroke="#2B4C7E" stroke-width="1.0" opacity=".18"/><path d="M0,840 L900,833" stroke="#C9A227" stroke-width="0.8" opacity=".18"/><path d="M0,910 L900,902" stroke="#D63B23" stroke-width="0.7" opacity=".18"/><path d="M0,980 L900,976" stroke="#2B4C7E" stroke-width="1.5" opacity=".18"/><path d="M0,1050 L900,1059" stroke="#C9A227" stroke-width="1.3" opacity=".18"/></svg>