<svg viewBox="0 0 900 1120" xmlns="http://www.w3.org/2000/svg" preserveAspectRatio="xMidYMid slice" role="img"><defs><pattern id="rd480" width="9" height="9" patternUnits="userSpaceOnUse"><circle cx="3" cy="3" r="2.1" fill="#A8874B"/></pattern></defs><rect width="900" height="1120" fill="#F0EADD"/><g transform="translate(450,560) rotate(-1.9) scale(1.10) translate(-476,-534)"><rect x="36" y="67" width="648" height="95" fill="#3A5A4A" opacity="0.55" transform="rotate(-2 450 67)" style="mix-blend-mode:multiply"/><rect x="126" y="230" width="576" height="95" fill="#A8874B" opacity="0.67" transform="rotate(-1 450 230)" style="mix-blend-mode:multiply"/><rect x="36" y="392" width="504" height="95" fill="#8C4A3F" opacity="0.79" transform="rotate(0 450 392)" style="mix-blend-mode:multiply"/><rect x="126" y="554" width="648" height="95" fill="#3A5A4A" opacity="0.55" transform="rotate(1 450 554)" style="mix-blend-mode:multiply"/><rect x="36" y="717" width="576" height="95" fill="#A8874B" opacity="0.67" transform="rotate(2 450 717)" style="mix-blend-mode:multiply"/><rect x="126" y="879" width="504" height="95" fill="#8C4A3F" opacity="0.79" transform="rotate(3 450 879)" style="mix-blend-mode:multiply"/><path d="M270,1030 L270,582 A180,180 0 0 1 630,582 L630,1030 Z" fill="#A8874B" opacity=".72" style="mix-blend-mode:multiply"/><circle cx="450" cy="560" r="117" fill="url(#rd480)" opacity=".7"/></g><circle cx="410" cy="832" r="12" fill="#3A5A4A" opacity=".55" style="mix-blend-mode:multiply"/><rect x="278" y="103" width="30" height="14" fill="#A8874B" opacity=".6" transform="rotate(-35 278 103)" style="mix-blend-mode:multiply"/><circle cx="232" cy="145" r="12" fill="#8C4A3F" opacity=".55" style="mix-blend-mode:multiply"/><rect x="295" y="302" width="11" height="8" fill="#3A5A4A" opacity=".6" transform="rotate(23 295 302)" style="mix-blend-mode:multiply"/><circle cx="835" cy="776" r="7" fill="#A8874B" opacity=".55" style="mix-blend-mode:multiply"/><rect x="558" y="785" width="23" height="5" fill="#8C4A3F" opacity=".6" transform="rotate(26 558 785)" style="mix-blend-mode:multiply"/><circle cx="318" cy="662" r="7" fill="#3A5A4A" opacity=".55" style="mix-blend-mode:multiply"/><rect x="528" y="773" width="14" height="4" fill="#A8874B" opacity=".6" transform="rotate(-11 528 773)" style="mix-blend-mode:multiply"/><circle cx="323" cy="847" r="8" fill="#8C4A3F" opacity=".55" style="mix-blend-mode:multiply"/><rect x="462" y="888" width="33" height="5" fill="#3A5A4A" opacity=".6" transform="rotate(-37 462 888)" style="mix-blend-mode:multiply"/><circle cx="62" cy="778" r="11" fill="#A8874B" opacity=".55" style="mix-blend-mode:multiply"/><rect x="261" y="92" width="25" height="13" fill="#8C4A3F" opacity=".6" transform="rotate(-41 261 92)" style="mix-blend-mode:multiply"/><circle cx="841" cy="777" r="7" fill="#3A5A4A" opacity=".55" style="mix-blend-mode:multiply"/><rect x="206" y="890" width="12" height="10" fill="#A8874B" opacity=".6" transform="rotate(45 206 890)" style="mix-blend-mode:multiply"/><circle cx="345" cy="270" r="4" fill="#8C4A3F" opacity=".55" style="mix-blend-mode:multiply"/><rect x="594" y="895" width="24" height="11" fill="#3A5A4A" opacity=".6" transform="rotate(-34 594 895)" style="mix-blend-mode:multiply"/><circle cx="110" cy="192" r="7" fill="#A8874B" opacity=".55" style="mix-blend-mode:multiply"/><rect x="188" y="799" width="20" height="13" fill="#8C4A3F" opacity=".6" transform="rotate(-44 188 799)" style="mix-blend-mode:multiply"/><circle cx="240" cy="22" r="4" fill="#3A5A4A" opacity=".55" style="mix-blend-mode:multiply"/><rect x="829" y="246" width="14" height="6" fill="#A8874B" opacity=".6" transform="rotate(44 829 246)" style="mix-blend-mode:multiply"/><circle cx="583" cy="571" r="11" fill="#8C4A3F" opacity=".55" style="mix-blend-mode:multiply"/><rect x="859" y="643" width="9" height="8" fill="#3A5A4A" opacity=".6" transform="rotate(4 859 643)" style="mix-blend-mode:multiply"/><path d="M0,0 L900,3" stroke="#3A5A4A" stroke-width="0.7" opacity=".18"/><path d="M0,70 L900,79" stroke="#A8874B" stroke-width="1.2" opacity=".18"/><path d="M0,140 L900,147" stroke="#8C4A3F" stroke-width="1.2" opacity=".18"/><path d="M0,210 L900,219" stroke="#3A5A4A" stroke-width="1.0" opacity=".18"/><path d="M0,280 L900,284" stroke="#A8874B" stroke-width="1.0" opacity=".18"/><path d="M0,350 L900,344" stroke="#8C4A3F" stroke-width="2.0" opacity=".18"/><path d="M0,420 L900,414" stroke="#3A5A4A" stroke-width="0.6" opacity=".18"/><path d="M0,490 L900,492" stroke="#A8874B" stroke-width="1.6" opacity=".18"/><path d="M0,560 L900,559" stroke="#8C4A3F" stroke-width="2.0" opacity=".18"/><path d="M0,630 L900,633" stroke="#3A5A4A" stroke-width="1.8" opacity=".18"/><path d="M0,700 L900,709" stroke="#A8874B" stroke-width="0.7" opacity=".18"/><path d="M0,770 L900,778" stroke="#8C4A3F" stroke-width="1.6" opacity=".18"/><path d="M0,840 L900,836" stroke="#3A5A4A" stroke-width="1.8" opacity=".18"/><path d="M0,910 L900,915" stroke="#A8874B" stroke-width="1.8" opacity=".18"/><path d="M0,980 L900,989" stroke="#8C4A3F" stroke-width="1.9" opacity=".18"/><path d="M0,1050 L900,1040" stroke="#3A5A4A" stroke-width="1.1" opacity=".18"/></svg>