<svg viewBox="0 0 900 700" xmlns="http://www.w3.org/2000/svg" preserveAspectRatio="xMidYMid slice" role="img"><defs><clipPath id="pc1013_0"><rect x="40" y="40" width="819" height="290"/></clipPath><clipPath id="pc1013_1"><rect x="40" y="362" width="373" height="297"/></clipPath><clipPath id="pc1013_2"><rect x="450" y="362" width="410" height="297"/></clipPath></defs><rect width="900" height="700" fill="#FFF7E4"/><g clip-path="url(#pc1013_0)"><rect x="40.5" y="40.5" width="819.0" height="289.7" fill="#FFF7E4"/><path d="M615,106 L1104,-225" stroke="#151515" stroke-width="3.2" opacity="0.72"/><path d="M524,80 L490,-21" stroke="#151515" stroke-width="3.6" opacity="0.33"/><path d="M550,216 L564,769" stroke="#151515" stroke-width="1.2" opacity="0.52"/><path d="M517,207 L370,473" stroke="#151515" stroke-width="3.3" opacity="0.38"/><path d="M613,132 L1361,-87" stroke="#151515" stroke-width="3.2" opacity="0.40"/><path d="M515,90 L330,-253" stroke="#151515" stroke-width="3.8" opacity="0.54"/><path d="M536,92 L410,-485" stroke="#151515" stroke-width="3.0" opacity="0.46"/><path d="M483,98 L254,-86" stroke="#151515" stroke-width="3.0" opacity="0.55"/><path d="M477,153 L6,167" stroke="#151515" stroke-width="2.0" opacity="0.44"/><path d="M477,151 L337,151" stroke="#151515" stroke-width="1.9" opacity="0.38"/><path d="M544,230 L538,339" stroke="#151515" stroke-width="2.6" opacity="0.51"/><path d="M493,175 L294,264" stroke="#151515" stroke-width="3.8" opacity="0.47"/><path d="M608,122 L827,16" stroke="#151515" stroke-width="3.3" opacity="0.49"/><path d="M520,90 L448,-64" stroke="#151515" stroke-width="2.6" opacity="0.72"/><path d="M538,233 L464,812" stroke="#151515" stroke-width="3.8" opacity="0.41"/><path d="M491,176 L24,381" stroke="#151515" stroke-width="2.3" opacity="0.62"/><path d="M501,116 L63,-209" stroke="#151515" stroke-width="1.3" opacity="0.44"/><path d="M630,145 L1302,96" stroke="#151515" stroke-width="1.3" opacity="0.74"/><path d="M530,222 L379,814" stroke="#151515" stroke-width="1.1" opacity="0.64"/><path d="M471,174 L354,209" stroke="#151515" stroke-width="1.5" opacity="0.32"/><path d="M492,208 L94,607" stroke="#151515" stroke-width="3.6" opacity="0.57"/><path d="M523,79 L380,-327" stroke="#151515" stroke-width="4.0" opacity="0.54"/><path d="M557,73 L590,-221" stroke="#151515" stroke-width="1.9" opacity="0.33"/><path d="M615,191 L1153,519" stroke="#151515" stroke-width="3.0" opacity="0.47"/><path d="M481,172 L42,311" stroke="#151515" stroke-width="2.6" opacity="0.34"/><path d="M541,234 L504,653" stroke="#151515" stroke-width="3.8" opacity="0.54"/><path d="M621,194 L1226,559" stroke="#151515" stroke-width="3.8" opacity="0.55"/><path d="M585,205 L707,385" stroke="#151515" stroke-width="1.4" opacity="0.78"/><path d="M615,185 L1104,435" stroke="#151515" stroke-width="3.3" opacity="0.67"/><path d="M596,206 L974,647" stroke="#151515" stroke-width="2.5" opacity="0.61"/><circle cx="548" cy="151" r="55" fill="#FFC531"/><circle cx="548" cy="151" r="55" fill="none" stroke="#151515" stroke-width="4"/><g transform="translate(253,336) scale(3.05)" fill="#151515"><path d="M-16,0 L-16,-34 C-16,-52 -4,-64 12,-64 C26,-64 36,-54 36,-42 C36,-34 33,-30 37,-26 C39,-24 37,-22 34,-21 C33,-17 34,-13 35,-9 C36,-4 30,-2 26,-3 L26,0 Z"/></g></g><rect x="40" y="40" width="819" height="290" fill="none" stroke="#151515" stroke-width="7.2"/><rect x="81" y="58" width="393" height="38" fill="#FFF7E4" stroke="#151515" stroke-width="3.6"/><rect x="106" y="65" width="314" height="5" fill="#151515" opacity=".55" rx="3"/><rect x="106" y="78" width="216" height="5" fill="#151515" opacity=".55" rx="3"/><g clip-path="url(#pc1013_1)"><rect x="40.5" y="362.38" width="373.32" height="297.12" fill="#FFF7E4"/><circle cx="227" cy="511" r="107" fill="#FFC531" opacity=".8"/><g stroke="#151515" stroke-width="4.1" fill="none" stroke-linecap="round"><path d="M162,579 q65,30 131,0"/><path d="M174,579 l12,-89 q42,-24 83,0 l12,89"/><path d="M203,484 q24,-18 48,0"/></g></g><rect x="40" y="362" width="373" height="297" fill="none" stroke="#151515" stroke-width="7.2"/><ellipse cx="306" cy="422" rx="78" ry="30" fill="#FFF7E4" stroke="#151515" stroke-width="4.5"/><path d="M282,446 l-19,25 l47,-18 Z" fill="#FFF7E4" stroke="#151515" stroke-width="4.5" stroke-linejoin="round"/><rect x="259" y="413" width="94" height="6" fill="#151515" opacity=".6" rx="3"/><rect x="268" y="427" width="72" height="6" fill="#151515" opacity=".6" rx="3"/><g clip-path="url(#pc1013_2)"><rect x="450.0" y="362.38" width="409.5" height="297.12" fill="#FFF7E4"/><path d="M778,489 L1157,556" stroke="#151515" stroke-width="1.9" opacity="0.50"/><path d="M680,531 L570,788" stroke="#151515" stroke-width="3.2" opacity="0.35"/><path d="M776,486 L949,513" stroke="#151515" stroke-width="2.5" opacity="0.74"/><path d="M765,431 L906,330" stroke="#151515" stroke-width="2.5" opacity="0.30"/><path d="M667,417 L577,278" stroke="#151515" stroke-width="1.7" opacity="0.58"/><path d="M648,450 L289,288" stroke="#151515" stroke-width="2.9" opacity="0.77"/><path d="M633,522 L393,680" stroke="#151515" stroke-width="2.9" opacity="0.72"/><path d="M645,505 L349,658" stroke="#151515" stroke-width="2.1" opacity="0.48"/><path d="M653,537 L547,665" stroke="#151515" stroke-width="1.1" opacity="0.52"/><path d="M767,502 L1016,606" stroke="#151515" stroke-width="2.4" opacity="0.56"/><path d="M746,536 L905,762" stroke="#151515" stroke-width="1.3" opacity="0.39"/><path d="M740,538 L817,674" stroke="#151515" stroke-width="2.7" opacity="0.48"/><path d="M754,531 L918,711" stroke="#151515" stroke-width="2.8" opacity="0.43"/><path d="M710,558 L728,828" stroke="#151515" stroke-width="3.7" opacity="0.51"/><path d="M670,405 L547,152" stroke="#151515" stroke-width="2.8" opacity="0.65"/><path d="M774,469 L1140,434" stroke="#151515" stroke-width="3.6" opacity="0.55"/><path d="M765,415 L985,199" stroke="#151515" stroke-width="1.4" opacity="0.46"/><path d="M650,420 L456,223" stroke="#151515" stroke-width="1.8" opacity="0.51"/><path d="M660,543 L484,813" stroke="#151515" stroke-width="1.3" opacity="0.54"/><path d="M633,521 L304,735" stroke="#151515" stroke-width="3.3" opacity="0.68"/><path d="M696,403 L666,123" stroke="#151515" stroke-width="3.9" opacity="0.40"/><path d="M646,451 L474,380" stroke="#151515" stroke-width="2.9" opacity="0.39"/><path d="M721,539 L791,801" stroke="#151515" stroke-width="1.5" opacity="0.31"/><path d="M673,557 L615,706" stroke="#151515" stroke-width="3.4" opacity="0.32"/><path d="M770,422 L1003,233" stroke="#151515" stroke-width="3.0" opacity="0.42"/><path d="M731,422 L880,125" stroke="#151515" stroke-width="3.0" opacity="0.60"/><path d="M629,516 L338,676" stroke="#151515" stroke-width="1.4" opacity="0.32"/><path d="M759,428 L1063,170" stroke="#151515" stroke-width="3.7" opacity="0.42"/><path d="M645,419 L501,280" stroke="#151515" stroke-width="2.6" opacity="0.51"/><path d="M766,520 L1076,743" stroke="#151515" stroke-width="3.0" opacity="0.79"/><circle cx="704" cy="475" r="56" fill="#FFC531"/><circle cx="704" cy="475" r="56" fill="none" stroke="#151515" stroke-width="4"/><g transform="translate(556,665) scale(3.13)" fill="#151515"><path d="M-16,0 L-16,-34 C-16,-52 -4,-64 12,-64 C26,-64 36,-54 36,-42 C36,-34 33,-30 37,-26 C39,-24 37,-22 34,-21 C33,-17 34,-13 35,-9 C36,-4 30,-2 26,-3 L26,0 Z"/></g></g><rect x="450" y="362" width="410" height="297" fill="none" stroke="#151515" stroke-width="7.2"/></svg>