<svg viewBox="0 0 900 1200" xmlns="http://www.w3.org/2000/svg" preserveAspectRatio="xMidYMid slice" role="img"><defs><clipPath id="pc1030_0"><rect x="40" y="40" width="390" height="495"/></clipPath><clipPath id="pc1030_1"><rect x="466" y="40" width="393" height="226"/></clipPath><clipPath id="pc1030_2"><rect x="466" y="309" width="393" height="226"/></clipPath><clipPath id="pc1030_3"><rect x="40" y="578" width="819" height="582"/></clipPath></defs><rect width="900" height="1200" fill="#FFF7E4"/><g clip-path="url(#pc1030_0)"><rect x="40.5" y="40.5" width="389.7" height="494.94" fill="#FFF7E4"/><rect x="40.5" y="328" width="389.7" height="208" fill="#FF4A34"/><circle cx="305" cy="189" r="66" fill="#FFC531"/><path d="M40.5,328 L430.2,328" stroke="#151515" stroke-width="3"/><path d="M87,328 v-129 m-21,26 h41" stroke="#151515" stroke-width="3.5" fill="none"/><path d="M189,328 v-106 m-17,21 h34" stroke="#151515" stroke-width="2.9" fill="none"/><path d="M290,328 v-84 m-13,17 h27" stroke="#151515" stroke-width="2.3" fill="none"/><path d="M391,328 v-62 m-10,12 h20" stroke="#151515" stroke-width="1.7" fill="none"/><circle cx="414" cy="416" r="1.9" fill="#151515" opacity=".4"/><circle cx="296" cy="367" r="2.5" fill="#151515" opacity=".4"/><circle cx="407" cy="434" r="2.4" fill="#151515" opacity=".4"/><circle cx="334" cy="421" r="1.1" fill="#151515" opacity=".4"/><circle cx="114" cy="514" r="1.1" fill="#151515" opacity=".4"/><circle cx="45" cy="501" r="1.3" fill="#151515" opacity=".4"/><circle cx="335" cy="403" r="2.1" fill="#151515" opacity=".4"/><circle cx="208" cy="458" r="1.5" fill="#151515" opacity=".4"/><circle cx="333" cy="379" r="2.2" fill="#151515" opacity=".4"/><circle cx="97" cy="393" r="1.6" fill="#151515" opacity=".4"/><circle cx="180" cy="360" r="2.2" fill="#151515" opacity=".4"/><circle cx="424" cy="484" r="1.1" fill="#151515" opacity=".4"/><circle cx="187" cy="497" r="2.4" fill="#151515" opacity=".4"/><circle cx="73" cy="455" r="1.1" fill="#151515" opacity=".4"/><circle cx="407" cy="524" r="1.5" fill="#151515" opacity=".4"/><circle cx="296" cy="429" r="1.3" fill="#151515" opacity=".4"/><circle cx="421" cy="424" r="1.5" fill="#151515" opacity=".4"/><circle cx="426" cy="338" r="0.8" fill="#151515" opacity=".4"/><circle cx="306" cy="489" r="1.3" fill="#151515" opacity=".4"/><circle cx="45" cy="526" r="2.1" fill="#151515" opacity=".4"/><circle cx="175" cy="483" r="2.6" fill="#151515" opacity=".4"/><circle cx="205" cy="496" r="1.9" fill="#151515" opacity=".4"/><circle cx="194" cy="419" r="2.1" fill="#151515" opacity=".4"/><circle cx="110" cy="367" r="1.8" fill="#151515" opacity=".4"/><circle cx="307" cy="481" r="2.5" fill="#151515" opacity=".4"/><circle cx="198" cy="386" r="2.1" fill="#151515" opacity=".4"/><circle cx="246" cy="332" r="1.0" fill="#151515" opacity=".4"/><circle cx="247" cy="504" r="1.3" fill="#151515" opacity=".4"/><g transform="translate(150,466) scale(1.69)" fill="#151515"><circle cx="2" cy="-46" r="13"/><path d="M-13,-30 C-13,-34 -5,-32 1,-32 C7,-32 15,-34 15,-30 L22,2 L14,6 L9,-12 L12,38 L4,40 L-2,10 L-12,38 L-20,36 L-10,-12 L-16,4 L-24,2 Z"/></g></g><rect x="40" y="40" width="390" height="495" fill="none" stroke="#151515" stroke-width="7.2"/><rect x="60" y="70" width="187" height="64" fill="#FFF7E4" stroke="#151515" stroke-width="3.6"/><rect x="72" y="83" width="150" height="9" fill="#151515" opacity=".55" rx="5"/><rect x="72" y="104" width="103" height="9" fill="#151515" opacity=".55" rx="5"/><g clip-path="url(#pc1030_1)"><rect x="466.38" y="40.5" width="393.12" height="226.38" fill="#FFC531"/><rect x="466.38" y="181" width="393.12" height="86" fill="#FF4A34"/><path d="M466.38,181 L859.5,181" stroke="#151515" stroke-width="4"/><g transform="translate(584,249) scale(1.19)" fill="#151515"><circle cx="0" cy="-46" r="13"/><path d="M-14,-30 C-14,-34 -6,-32 0,-32 C6,-32 14,-34 14,-30 L18,4 L10,4 L8,-14 L6,40 L-2,40 L-4,2 L-8,40 L-16,40 L-14,-14 L-16,4 L-24,4 Z"/></g><g transform="translate(734,249) scale(1.19)" fill="#151515"><circle cx="3" cy="-46" r="13"/><path d="M-12,-30 C-12,-34 -4,-32 2,-32 C8,-32 16,-33 15,-28 L20,6 L12,8 L8,-10 L10,40 L2,40 L-2,8 L-10,40 L-18,38 L-12,-10 L-18,6 L-26,2 Z"/></g></g><rect x="466" y="40" width="393" height="226" fill="none" stroke="#151515" stroke-width="7.2"/><ellipse cx="745" cy="86" rx="83" ry="23" fill="#FFF7E4" stroke="#151515" stroke-width="4.5"/><path d="M721,104 l-20,19 l50,-14 Z" fill="#FFF7E4" stroke="#151515" stroke-width="4.5" stroke-linejoin="round"/><rect x="696" y="79" width="99" height="5" fill="#151515" opacity=".6" rx="2"/><rect x="706" y="89" width="76" height="5" fill="#151515" opacity=".6" rx="2"/><g clip-path="url(#pc1030_2)"><rect x="466.38" y="309.06" width="393.12" height="226.38" fill="#FFF7E4"/><rect x="466.38" y="440" width="393.12" height="95" fill="#FF4A34"/><circle cx="734" cy="377" r="38" fill="#FFC531"/><path d="M466.38,440 L859.5,440" stroke="#151515" stroke-width="3"/><path d="M514,440 v-59 m-9,12 h19" stroke="#151515" stroke-width="3.5" fill="none"/><path d="M616,440 v-49 m-8,10 h16" stroke="#151515" stroke-width="2.9" fill="none"/><path d="M718,440 v-38 m-6,8 h12" stroke="#151515" stroke-width="2.3" fill="none"/><path d="M820,440 v-28 m-5,6 h9" stroke="#151515" stroke-width="1.7" fill="none"/><circle cx="506" cy="482" r="2.6" fill="#151515" opacity=".4"/><circle cx="504" cy="511" r="2.5" fill="#151515" opacity=".4"/><circle cx="596" cy="486" r="2.1" fill="#151515" opacity=".4"/><circle cx="535" cy="453" r="2.3" fill="#151515" opacity=".4"/><circle cx="604" cy="474" r="0.9" fill="#151515" opacity=".4"/><circle cx="833" cy="473" r="2.5" fill="#151515" opacity=".4"/><circle cx="547" cy="510" r="2.1" fill="#151515" opacity=".4"/><circle cx="800" cy="488" r="1.3" fill="#151515" opacity=".4"/><circle cx="768" cy="450" r="2.6" fill="#151515" opacity=".4"/><circle cx="558" cy="468" r="1.7" fill="#151515" opacity=".4"/><circle cx="744" cy="471" r="1.5" fill="#151515" opacity=".4"/><circle cx="729" cy="453" r="2.5" fill="#151515" opacity=".4"/><circle cx="654" cy="476" r="1.1" fill="#151515" opacity=".4"/><circle cx="602" cy="531" r="2.1" fill="#151515" opacity=".4"/><circle cx="677" cy="531" r="1.2" fill="#151515" opacity=".4"/><circle cx="691" cy="469" r="1.8" fill="#151515" opacity=".4"/><circle cx="686" cy="527" r="1.1" fill="#151515" opacity=".4"/><circle cx="802" cy="469" r="1.7" fill="#151515" opacity=".4"/><circle cx="615" cy="510" r="1.5" fill="#151515" opacity=".4"/><circle cx="474" cy="441" r="1.9" fill="#151515" opacity=".4"/><circle cx="628" cy="493" r="1.2" fill="#151515" opacity=".4"/><circle cx="819" cy="508" r="2.1" fill="#151515" opacity=".4"/><circle cx="586" cy="528" r="2.5" fill="#151515" opacity=".4"/><circle cx="606" cy="517" r="2.3" fill="#151515" opacity=".4"/><circle cx="796" cy="461" r="1.0" fill="#151515" opacity=".4"/><circle cx="712" cy="469" r="1.2" fill="#151515" opacity=".4"/><circle cx="781" cy="497" r="1.4" fill="#151515" opacity=".4"/><circle cx="720" cy="444" r="2.6" fill="#151515" opacity=".4"/><g transform="translate(576,504) scale(0.98)" fill="#151515"><circle cx="2" cy="-46" r="13"/><path d="M-13,-30 C-13,-34 -5,-32 1,-32 C7,-32 15,-34 15,-30 L22,2 L14,6 L9,-12 L12,38 L4,40 L-2,10 L-12,38 L-20,36 L-10,-12 L-16,4 L-24,2 Z"/></g></g><rect x="466" y="309" width="393" height="226" fill="none" stroke="#151515" stroke-width="7.2"/><g clip-path="url(#pc1030_3)"><rect x="40.5" y="577.62" width="819.0" height="581.88" fill="#FFC531"/><rect x="40.5" y="938" width="819.0" height="221" fill="#FF4A34"/><path d="M40.5,938 L859.5,938" stroke="#151515" stroke-width="4"/><g transform="translate(286,1113) scale(3.06)" fill="#151515"><circle cx="0" cy="-46" r="13"/><path d="M-14,-30 C-14,-34 -6,-32 0,-32 C6,-32 14,-34 14,-30 L18,4 L10,4 L8,-14 L6,40 L-2,40 L-4,2 L-8,40 L-16,40 L-14,-14 L-16,4 L-24,4 Z"/></g><g transform="translate(597,1113) scale(3.06)" fill="#151515"><circle cx="3" cy="-46" r="13"/><path d="M-12,-30 C-12,-34 -4,-32 2,-32 C8,-32 16,-33 15,-28 L20,6 L12,8 L8,-10 L10,40 L2,40 L-2,8 L-10,40 L-18,38 L-12,-10 L-18,6 L-26,2 Z"/></g></g><rect x="40" y="578" width="819" height="582" fill="none" stroke="#151515" stroke-width="7.2"/><rect x="81" y="613" width="393" height="76" fill="#FFF7E4" stroke="#151515" stroke-width="3.6"/><rect x="106" y="627" width="314" height="11" fill="#151515" opacity=".55" rx="5"/><rect x="106" y="653" width="216" height="11" fill="#151515" opacity=".55" rx="5"/><ellipse cx="262" cy="694" rx="172" ry="58" fill="#FFF7E4" stroke="#151515" stroke-width="4.5"/><path d="M210,741 l-41,49 l103,-35 Z" fill="#FFF7E4" stroke="#151515" stroke-width="4.5" stroke-linejoin="round"/><rect x="158" y="678" width="206" height="12" fill="#151515" opacity=".6" rx="6"/><rect x="179" y="703" width="158" height="12" fill="#151515" opacity=".6" rx="6"/></svg>